PathFileType	4	(X/Y/Z)	HSS_squat1.trc
DataRate	CameraRate	NumFrames	NumMarkers	Units	OrigDataRate	OrigDataStartFrame	OrigNumFrames
120.0	120.0	8	44	mm	120.0	681	1088
Frame#	Time		R.Shoulder		Offset		L.Shoulder		R.Elbow		R.Wrist.Radial		R.Wrist		R.Hand		L.Elbow		L.Wrist.Radial		L.Wrist		L.Hand		R.Hip		V.Sacral		L.PSIS		L.Hip		R.Thigh.Upper		R.Thigh.Front		R.Thigh.Rear		X.Shell.Lower.Thigh.Right		R.Knee.Lateral		R.Shank.Upper		R.Shank.Front		R.Shank.Rear		X.Shell.Lower.Shank.Right		R.Ankle.Lateral		R.Heel		R.Toe		L.Thigh.Upper		L.Thigh.Front		L.Thigh.Rear		X.Shell.Lower.Thigh.Left		L.Knee.Lateral		L.Shank.Upper		L.Shank.Front		L.Shank.Rear		X.Shell.Lower.Shank.Left		L.Ankle.Lateral		L.Heel		L.Toe		R.Troc		L.Troc		R.PSIS		L.ASIS		R.ASIS
			X1	Y1	Z1	X2	Y2	Z2	X3	Y3	Z3	X4	Y4	Z4	X5	Y5	Z5	X6	Y6	Z6	X7	Y7	Z7	X8	Y8	Z8	X9	Y9	Z9	X10	Y10	Z10	X11	Y11	Z11	X12	Y12	Z12	X13	Y13	Z13	X14	Y14	Z14	X15	Y15	Z15	X16	Y16	Z16	X17	Y17	Z17	X18	Y18	Z18	X19	Y19	Z19	X20	Y20	Z20	X21	Y21	Z21	X22	Y22	Z22	X23	Y23	Z23	X24	Y24	Z24	X25	Y25	Z25	X26	Y26	Z26	X27	Y27	Z27	X28	Y28	Z28	X29	Y29	Z29	X30	Y30	Z30	X31	Y31	Z31	X32	Y32	Z32	X33	Y33	Z33	X34	Y34	Z34	X35	Y35	Z35	X36	Y36	Z36	X37	Y37	Z37	X38	Y38	Z38	X39	Y39	Z39	X40	Y40	Z40	X41	Y41	Z41	X42	Y42	Z42	X43	Y43	Z43	X44	Y44	Z44

681	5.66667	114.20448	862.34845	-265.40643	-176.24748	829.34125	-128.36400	-192.19664	869.92749	-287.41693	212.09291	669.23346	-522.93683	51.18252	700.68701	-726.24542	113.55278	725.74823	-767.95801	41.65618	741.56720	-814.03400	-278.42438	703.42609	-565.22083	-146.12993	746.94702	-786.12994	-97.74154	705.02832	-749.79010	-64.81157	738.96600	-821.03174	98.37312	539.83099	30.82569	-52.31976	536.20349	161.31076	-88.70724	545.22034	153.67821	-201.26642	527.56366	35.92565	183.58229	498.73544	-107.37261	171.31430	530.45679	-147.47098	207.53192	480.51797	-141.92319	193.83832	505.92175	-178.44337	211.28958	436.33356	-281.05582	256.34238	321.93442	-255.27090	232.38298	270.85123	-260.23904	242.46252	304.37256	-210.57930	233.49734	258.11334	-212.46271	188.61499	72.03765	-92.84416	138.96538	35.58305	-43.07584	201.19739	33.88725	-236.61531	-246.53577	489.54916	-123.05186	-231.28685	511.72644	-174.05858	-268.15146	462.99210	-157.92006	-259.73694	490.76468	-192.44632	-247.64577	422.39954	-305.09653	-285.57822	274.28098	-223.14078	-267.86807	240.32468	-235.50629	-272.98602	255.16496	-176.58110	-274.67114	216.99016	-182.56007	-233.34036	72.99396	-109.22987	-186.16440	38.97140	-45.70169	-241.17345	32.37066	-242.31042	134.40894	500.82779	60.19395	-239.56464	477.32278	60.63271	-12.86457	547.16901	155.77849	-168.46768	501.21326	0.16557	70.92243	509.70630	-19.07154
682	5.67500	114.22948	860.34210	-265.20386	-176.23413	827.44055	-128.09860	-192.10060	867.98889	-287.07410	212.04980	667.02869	-522.64435	51.13690	698.58215	-725.98450	113.65680	723.66595	-767.55701	41.68063	739.38861	-813.66119	-278.32367	701.28748	-564.69788	-146.12277	744.74518	-785.91998	-98.14747	702.71405	-749.68207	-64.76650	736.83569	-820.67426	98.46419	538.07367	31.14131	-52.20304	533.95966	161.54599	-88.54134	543.06073	153.98793	-201.21510	525.78076	36.33164	183.36760	497.77975	-107.11955	170.91544	529.68866	-147.16319	207.19070	479.67950	-141.80688	193.55086	505.33881	-178.11880	210.95096	436.20059	-281.14154	256.04822	321.91476	-255.37801	232.16364	270.85638	-260.32175	242.26755	304.39105	-210.64290	233.34062	258.14359	-212.59999	188.55582	72.03601	-92.87428	138.97086	35.57872	-43.06744	201.18311	33.87037	-236.61649	-246.70782	488.53961	-122.71075	-231.38802	511.08932	-173.45262	-268.33301	462.17709	-157.67508	-260.00064	490.05887	-191.91222	-247.97626	422.34601	-304.94006	-285.73041	274.28253	-223.03317	-268.02512	240.37706	-235.43002	-273.04175	255.15045	-176.52498	-274.72861	216.99007	-182.46658	-233.32674	72.97388	-109.22725	-186.11496	38.95274	-45.71469	-241.17395	32.38240	-242.31621	134.44612	499.04761	60.55959	-239.53471	475.48972	61.07726	-12.77501	544.87994	156.16006	-168.58699	499.41666	0.79014	71.01690	508.06985	-18.87932
683	5.68333	114.40584	858.34222	-264.87027	-176.05043	825.49939	-127.61811	-191.96852	865.95605	-286.77176	212.09016	664.92468	-522.49963	51.23558	696.44067	-725.78839	113.68288	721.48499	-767.23273	41.78063	737.34186	-813.32263	-278.07318	699.26465	-564.38702	-146.11108	742.57867	-785.36493	-97.42297	701.11316	-748.97504	-64.76877	734.73047	-820.34570	98.37473	535.74091	31.30248	-52.04273	531.71320	162.03397	-88.46564	540.88727	154.49126	-201.15051	524.06854	36.74219	183.18921	496.89709	-107.03185	170.65002	528.88824	-146.83701	206.97038	478.94897	-141.86481	193.34421	504.87921	-177.97755	210.64758	436.08951	-281.21365	255.76401	321.94772	-255.43802	231.79739	270.88297	-260.44699	241.99287	304.37579	-210.73236	233.28969	257.92844	-212.80960	188.51033	72.05702	-92.90768	138.95241	35.58433	-43.04804	201.15611	33.88806	-236.59045	-246.88440	487.72794	-122.14414	-231.63083	510.38690	-172.94272	-268.56400	461.57153	-157.40807	-260.25479	489.58188	-191.50957	-248.30008	422.30219	-304.81235	-285.88342	274.21548	-223.03012	-268.20590	240.41147	-235.32516	-273.45386	255.08037	-176.29572	-274.79987	216.99338	-182.38179	-233.33572	72.94621	-109.17786	-186.09030	38.93703	-45.68703	-241.17491	32.37222	-242.28342	134.46341	497.05725	60.63071	-239.45578	473.74261	61.30634	-12.63068	542.73553	156.60663	-168.69991	497.64075	1.40228	71.11393	506.45532	-18.69098
684	5.69167	114.50839	856.42950	-264.68307	-175.77039	823.82123	-127.22466	-191.95634	864.08124	-286.35129	212.10493	662.72668	-522.07788	51.31606	694.48816	-725.37506	113.71754	719.51245	-767.05255	41.70994	735.39368	-813.12445	-277.92239	697.17731	-563.92365	-145.94131	740.42157	-785.05933	-97.23350	699.01233	-748.64325	-64.73654	732.65546	-820.00153	98.47897	534.00482	31.65920	-51.93323	529.63312	162.53165	-88.31785	538.73248	154.89052	-200.95474	522.45135	37.18430	183.03214	495.93048	-106.85853	170.29620	528.17340	-146.31424	206.74397	478.17511	-141.68210	193.05254	504.23120	-177.72818	210.37752	436.02847	-281.20181	255.48967	321.99228	-255.53592	231.58865	270.94754	-260.44580	241.74947	304.37308	-210.80367	233.03227	257.94070	-212.87971	188.47346	72.06513	-92.92982	138.96303	35.56485	-43.05909	201.15306	33.88636	-236.59686	-246.99861	486.79138	-121.69258	-231.82497	509.82040	-172.44499	-268.92557	460.91989	-157.00853	-260.48373	489.01648	-191.02921	-248.68900	422.33533	-304.61768	-286.05508	274.18475	-222.91878	-268.35864	240.41525	-235.21437	-273.67880	255.04201	-176.17566	-274.90741	216.96260	-182.26517	-233.34317	72.93097	-109.15398	-186.06085	38.91941	-45.69515	-241.18579	32.37902	-242.30022	134.46677	495.32175	60.84056	-239.36275	472.10214	61.59356	-12.53825	540.64465	157.00246	-168.80656	495.88565	2.00204	71.21344	504.86279	-18.50648
685	5.70000	114.61763	854.64685	-264.49255	-175.66977	822.15033	-126.62884	-191.90344	862.31934	-285.96017	212.18687	660.75598	-521.92371	51.23782	692.42615	-724.75836	113.64735	717.39862	-766.84308	41.73255	733.34625	-812.81659	-277.73782	695.23315	-563.42694	-146.00098	738.47705	-784.70392	-97.83197	696.59155	-748.55750	-64.75264	730.68573	-819.61682	98.54871	532.13593	32.17486	-51.85894	527.48022	162.82491	-88.16613	536.83478	155.30391	-200.87457	520.97528	37.54711	182.81390	494.99905	-106.66186	170.07494	527.33331	-145.92609	206.55264	477.36542	-141.56491	192.77512	503.57791	-177.37056	210.07970	435.92838	-281.22269	255.29277	322.08307	-255.58830	231.39656	271.02063	-260.41776	241.57896	304.42249	-210.84125	232.83995	257.98743	-212.93021	188.41574	72.10208	-92.92597	138.96008	35.56031	-43.03171	201.10904	33.93186	-236.58496	-247.25101	486.19922	-121.38420	-232.02428	509.15302	-172.09573	-269.17505	460.39325	-156.60123	-260.74985	488.56616	-190.56265	-249.05220	422.31424	-304.47397	-286.22409	274.15533	-222.82008	-268.55399	240.38582	-235.10138	-273.96945	255.05513	-176.04010	-275.06525	216.89110	-182.15714	-233.36084	72.90167	-109.14674	-186.03688	38.92946	-45.71134	-241.19568	32.39252	-242.26268	134.50902	493.44031	61.14960	-239.31189	470.47110	61.95210	-12.37999	538.51190	157.37737	-168.90697	494.15173	2.58949	71.31533	503.29251	-18.32579
686	5.70833	114.76266	852.83154	-264.43604	-175.44579	820.39746	-126.30994	-191.80586	860.52051	-285.46277	212.27344	658.79871	-521.61450	51.43654	690.38904	-724.70105	113.73248	715.40442	-766.52368	41.74346	731.30518	-812.52051	-277.58456	693.36615	-562.79523	-146.11287	736.56885	-784.21747	-97.48225	695.12634	-747.99579	-64.87193	728.69830	-819.21985	98.67683	530.48077	32.50948	-51.83603	525.51129	163.22928	-88.06078	534.98260	155.79747	-200.72127	519.53223	37.95676	182.60901	494.03928	-106.30920	169.85925	526.57880	-145.53981	206.35777	476.61295	-141.41130	192.62233	503.06143	-177.05547	209.85213	435.88760	-281.18085	255.14095	322.17731	-255.59593	231.25046	271.12024	-260.40280	241.35629	304.47290	-210.89571	232.41995	258.18915	-212.86644	188.37067	72.12281	-92.96446	138.95517	35.55303	-43.02274	201.07767	33.94875	-236.57413	-247.45647	485.35095	-120.77292	-232.25998	508.61673	-171.68198	-269.54126	459.88019	-156.30650	-261.08588	488.17435	-190.17139	-249.50508	422.32773	-304.29883	-286.48526	274.06110	-222.72501	-268.75586	240.33524	-235.04153	-274.28314	255.05748	-175.94615	-275.26755	216.83635	-182.15619	-233.37189	72.89413	-109.15813	-185.99168	38.93224	-45.71033	-241.21458	32.40304	-242.24419	134.57104	491.75351	61.52034	-239.14749	469.05765	62.23542	-12.25474	536.48981	157.96585	-169.00124	492.43933	3.16467	71.41952	501.74457	-18.14884
687	5.71667	114.87825	851.13293	-264.17813	-175.25229	818.83466	-125.75377	-191.76389	858.83069	-285.14398	212.35126	657.02673	-521.39447	51.35252	688.33911	-724.40131	113.79839	713.37195	-766.22357	41.76890	729.37561	-812.17639	-277.42462	691.47479	-562.38391	-146.00568	734.66583	-783.76410	-96.91682	693.23602	-747.44037	-64.87271	726.85986	-818.87109	98.89484	528.81696	33.02956	-51.57426	523.61713	163.57501	-87.85353	532.99133	156.07845	-200.57475	518.17322	38.34103	182.44638	493.26550	-106.00513	169.78909	525.84412	-145.04070	206.15642	475.81131	-141.07309	192.37041	502.46869	-176.62779	209.59726	435.86383	-281.11163	254.92329	322.27927	-255.59532	231.04008	271.19629	-260.38971	241.16310	304.56052	-210.88617	232.21864	258.23651	-212.82756	188.33167	72.13470	-92.94627	138.94733	35.54892	-43.01753	201.05254	33.96328	-236.57774	-247.65923	484.86938	-120.55014	-232.46031	508.16379	-171.22385	-269.89682	459.41547	-156.03809	-261.36966	487.74176	-189.86266	-249.97246	422.32925	-304.13361	-286.79181	274.09723	-222.47961	-268.96570	240.30466	-234.98526	-274.17151	255.09828	-176.02872	-275.49341	216.78505	-182.10088	-233.40776	72.86098	-109.15720	-185.98198	38.93247	-45.74500	-241.23253	32.42034	-242.25256	134.63953	489.92413	61.88237	-239.06229	467.68463	62.33538	-12.20994	534.56897	158.51347	-169.08940	490.74860	3.72765	71.52589	500.21918	-17.97563
688	5.72500	115.00551	849.59003	-263.88013	-175.10410	817.20807	-125.53466	-191.71231	857.22339	-284.72040	212.39987	655.24237	-521.14276	50.93938	686.43024	-723.76978	113.69579	711.38104	-765.94171	41.76975	727.42896	-811.95544	-277.38803	689.68933	-561.87274	-145.93907	732.77930	-783.54767	-97.77620	691.29376	-747.31793	-64.92963	725.05652	-818.47754	98.98268	527.27100	33.58706	-51.55890	521.72888	164.17633	-87.87682	531.19995	156.62514	-200.44502	516.83295	38.70267	181.99368	492.01624	-105.57512	169.63939	525.22620	-144.55885	205.93781	475.25833	-140.80203	192.08858	501.86209	-176.31746	209.40848	435.86609	-280.94431	254.69519	322.38065	-255.52858	230.79784	271.27777	-260.35840	240.99992	304.63785	-210.82442	232.06351	258.31403	-212.76982	188.30084	72.17039	-92.95232	138.93327	35.55358	-43.01104	201.05019	34.01197	-236.55133	-247.88556	484.14117	-120.13829	-232.72147	507.62433	-170.89198	-270.27957	458.94861	-155.76427	-261.58990	487.36731	-189.62962	-250.46375	422.35132	-304.03244	-287.02924	273.96439	-222.55162	-269.16138	240.28036	-234.90906	-274.64426	255.04480	-175.77357	-275.76019	216.71780	-182.04005	-233.44061	72.83659	-109.15666	-185.98016	38.94612	-45.77001	-241.25363	32.43790	-242.25708	134.64481	488.22913	62.07425	-239.08400	466.37381	62.69335	-12.15485	532.69128	158.81390	-169.17154	489.07986	4.27849	71.63438	498.71655	-17.80609
